<svg width="1728" height="529" viewBox="0 0 1728 529" fill="none" xmlns="http://www.w3.org/2000/svg">
<g clip-path="url(#clip0_1_14225)" filter="url(#filter0_d_1_14225)">
<rect width="1728" height="489" transform="translate(0 15)" fill="white"/>
<g opacity="0.12">
<path fill-rule="evenodd" clip-rule="evenodd" d="M514.226 137.512C514.114 114.398 469.402 88.4064 450.303 75.0061C412.538 48.5022 373.261 24.0271 334.348 -0.838834C295.434 -25.7048 256.416 -50.5034 219.31 -77.8027C195.217 -95.5237 166.907 -115.483 150.567 -140.787C115.758 -194.711 225.508 -186.703 253.937 -187.883C326.258 -190.896 409.211 -189.521 477.001 -217.602C517.469 -234.366 533.606 -262.481 524.914 -303.457C522.113 -316.783 513.82 -332.118 520.845 -345.1C528.346 -358.966 545.604 -366.967 559.926 -372.332C612.168 -391.88 672.233 -394.145 727.507 -396.598C787.109 -399.294 847.272 -398.506 906.454 -398.715C931.549 -398.802 957.757 -407.478 981.654 -414.528C1012.98 -423.77 1043.94 -434.15 1075.01 -444.187C1143.36 -466.215 1213.79 -489.416 1286.1 -495.011C1331.39 -498.516 1380.89 -493.777 1416.07 -463.289C1433.73 -447.982 1442.97 -425.225 1453.19 -405.01C1465.55 -380.589 1477.42 -355.932 1490.58 -331.895C1532.97 -254.48 1593.5 -178.83 1691.74 -175.029C1706.61 -174.456 1721.2 -176.323 1735.99 -176.673C1745.41 -176.889 1753.8 -174.698 1757.3 -165.214C1766.1 -141.427 1738.43 -103.875 1727.08 -85.0016C1702.24 -43.6887 1674.23 -4.22931 1647.98 36.2546C1630.62 63.0281 1600.57 99.616 1600.25 132.146C1599.97 161.13 1640.03 182.08 1661.84 196.357C1682.28 209.723 1719.31 228.428 1721.55 255.62C1722.64 268.804 1713.6 279.731 1704.17 288.211C1687.63 303.04 1668.58 313.501 1653.71 330.42C1629.31 358.178 1608.93 396.37 1612.24 433.773C1614.54 459.691 1629.91 476.663 1649.45 492.888C1657.67 499.71 1664.34 504.536 1664.77 515.611C1665.47 533.197 1658.31 551.807 1652.42 568.113C1631.32 626.466 1601.36 682.891 1568.03 735.576C1551.37 761.904 1533.38 788.152 1511.3 810.612C1496.83 825.36 1477.33 842.913 1455.27 842.892C1429.72 842.892 1402.7 834.022 1377.87 827.389C1331.49 814.993 1285.68 800.663 1240.05 785.962C1134.53 751.949 1030 715.181 926.457 675.659C853.526 647.773 779.048 619.847 710.48 582.774C697.108 575.493 684.487 567.005 672.786 557.422C660.284 547.359 644.771 542.856 629.04 539.499C531.407 518.664 424.445 534.659 326.405 544.689C301.521 547.231 276.636 549.785 251.681 551.565C230.229 553.095 204.546 557.483 183.695 550.891C142.611 537.915 178.527 490.091 193.711 470.604C247.171 401.991 316.145 343.942 380.075 284.678C410.472 256.456 441.1 228.307 469.843 198.487C484.81 182.983 514.325 157.774 514.226 137.512Z" stroke="#2B2B2B" stroke-width="1.66931"/>
<path fill-rule="evenodd" clip-rule="evenodd" d="M532.651 133.615C516.265 109.158 487.515 91.0809 463.651 74.0685C429.309 49.5773 393.887 26.4472 358.998 2.64998C326.009 -19.8536 292.949 -42.6132 262.398 -68.1689C243.77 -83.753 220.396 -102.389 211.572 -125.438C192.431 -175.398 295.402 -167.818 320.822 -169.125C384.019 -172.359 455.668 -173.1 514.134 -199.404C550.642 -215.83 565.64 -243.07 557.854 -280.888C555.162 -293.973 550.312 -305.144 556.452 -318.161C563.552 -333.226 579.882 -342.618 594.852 -349.248C641.747 -370.02 697.178 -374.433 748.011 -378.105C800.527 -381.898 855.243 -384.573 906.07 -381.797C926.395 -380.692 949.789 -386.965 969.904 -391.776C1000.85 -399.187 1031.49 -407.737 1062.28 -415.687C1124.87 -431.858 1189.08 -447.435 1254.19 -449.207C1301.2 -450.487 1350.21 -443.547 1389.32 -416.725C1428.95 -389.525 1446.54 -347.362 1468.52 -307.28C1506.48 -237.983 1557.74 -153.73 1645.56 -139.089C1658.88 -136.865 1671.68 -138.071 1684.98 -137.526C1691.82 -137.249 1699.61 -136.374 1703.08 -129.885C1712.08 -113.041 1687.4 -82.2437 1679.1 -69.3412C1656.15 -33.6859 1630.35 0.224451 1606.31 35.1926C1587.21 62.9582 1563 93.8097 1555.61 126.723C1546.65 166.663 1605.22 195.083 1625.82 223.205C1661.53 271.972 1593.87 299.758 1560.52 323.009C1522.22 349.704 1490.6 398.403 1524.94 439.704C1538.07 455.497 1554.23 464.91 1560.1 485.52C1569.27 517.753 1562.34 554.587 1554.89 586.449C1543.68 634.347 1525.93 681.726 1501.81 725.015C1484.53 756.008 1455.85 804.606 1413.86 800.961C1385.6 798.529 1356.86 789.642 1329.34 781.786C1288.13 770.029 1247.44 756.628 1206.96 742.708C1113.53 710.664 1021.13 675.332 930.544 636.469C868.735 609.943 696.323 501.542 683.35 497.675C644.669 486.153 600.69 488.181 560.811 489.967C507.763 492.339 454.981 498.483 402.241 504.177C377.136 506.872 351.906 510.166 326.668 511.494C308.704 512.437 285.113 513.245 269.379 503.2C238.667 483.6 272.883 438.754 287.034 419.781C330.382 361.616 385.218 311.245 436.633 259.743C461.864 234.457 487.48 209.211 510.384 181.897C519.622 170.868 542.778 148.721 532.651 133.615Z" stroke="#2B2B2B" stroke-width="1.66931"/>
<path fill-rule="evenodd" clip-rule="evenodd" d="M555.318 121.072C510.567 72.13 448.803 35.7301 395.496 -5.14491C368.741 -25.6666 341.818 -46.7477 318.742 -71.1918C306.738 -83.9025 291.749 -99.9762 289.436 -117.694C283.255 -165.093 376.064 -158.684 403.842 -160.483C457.548 -163.974 518.22 -166.623 566.943 -190.811C596.712 -205.597 611.372 -229.866 605.808 -261.764C603.341 -275.917 599.501 -287.94 605.808 -301.837C612.198 -315.916 625.513 -325.85 638.995 -333.297C677.74 -354.715 725.89 -361.563 769.512 -366.664C820.685 -372.607 872.243 -374.927 923.77 -373.606C968.899 -372.467 1013.81 -385.279 1057.87 -393.723C1116.25 -404.904 1175.68 -414.67 1235.41 -413.194C1282.59 -412.021 1330.13 -402.808 1370.46 -378.324C1411.44 -353.388 1436.08 -316.064 1458.29 -275.789C1491.87 -214.905 1533.72 -133.316 1607.39 -110.193C1618.11 -106.823 1628.09 -106.453 1639.15 -105.866C1644.51 -105.583 1651.44 -105.496 1654.11 -100.111C1660.51 -87.1442 1636.83 -62.0059 1630.23 -53.2446C1609.13 -25.2757 1586.27 1.43285 1564.65 29.031C1544.47 54.7961 1522.48 81.6462 1509.95 111.839C1490 159.925 1553.78 188.042 1551.99 233.864C1550.88 262.312 1522.56 282.712 1500.14 296.824C1472.53 314.179 1432.77 325.589 1418.95 357.257C1408.66 380.846 1424.81 394.574 1437.25 412.474C1458.33 442.802 1459.77 483.913 1457.57 519.019C1454.62 566.458 1443.06 614.598 1423.39 658.202C1414.48 677.969 1403.56 698.531 1387.48 713.884C1372.42 728.273 1358.17 731.959 1338.04 729.014C1276.43 719.983 1214.23 694.811 1155.15 672.328C1080.91 644.076 1007.71 612.886 936.685 577.794C888.255 553.862 838.733 528.541 796.225 495.478C785.146 486.858 773.8 477.49 765.7 466.12C759.575 457.575 756.975 450.518 746.653 445.639C716.058 431.183 673.501 434.964 640.719 436.467C588.303 438.859 536.138 445.228 484.044 450.963C453.645 454.333 396.379 464.934 372.105 439.506C351.152 417.549 376.435 380.111 389.35 360.769C422.02 311.854 464.044 268.923 503.034 224.719C520.904 204.46 539.474 184.046 554.232 161.523C558.002 155.781 564.042 148.172 565.079 141.196C566.243 133.203 560.812 127.104 555.318 121.072Z" stroke="#2B2B2B" stroke-width="1.66931"/>
<path fill-rule="evenodd" clip-rule="evenodd" d="M559.167 132.466C517.816 89.1919 467.999 53.6408 423.606 13.1457C403.702 -5.01092 383.601 -24.0579 368.435 -46.2075C360.276 -58.1185 351.614 -73.1119 353.864 -87.9165C360.318 -130.408 436.65 -126.57 467.488 -129.059C513.31 -132.715 565.952 -136.397 606.469 -159.309C633.01 -174.316 642.963 -196.479 638.007 -225.063C632.688 -255.724 644.582 -277.981 671.649 -295.086C705.585 -316.514 748.422 -325.248 787.824 -331.453C835.296 -338.893 883.37 -342.191 931.459 -341.307C978.228 -340.444 1023.54 -347.984 1070 -352.888C1131.6 -359.383 1195.17 -362.587 1256.08 -349.273C1309.11 -337.678 1357 -312.13 1392.91 -272.619C1430.41 -231.382 1448.98 -179.428 1479.43 -133.807C1498.42 -105.351 1524.91 -67.7094 1560.4 -56.6482C1572.24 -52.9588 1593.81 -57.9364 1584.36 -39.7865C1578.95 -29.4064 1568.84 -20.3011 1560.85 -11.8163C1547.94 1.8956 1534.6 15.2298 1521.47 28.7529C1493.5 57.5797 1463.53 87.0201 1442.56 121.155C1416.14 164.132 1455.42 197.208 1450.63 240.785C1448.06 264.236 1431.11 282.953 1413.18 297.656C1401.58 307.18 1388.89 315.429 1375.93 323.124C1362.4 331.164 1346.38 337.288 1334.58 347.682C1317.76 362.473 1325.06 379.982 1328.22 399.103C1333.77 432.706 1334.99 466.841 1331.85 500.732C1328.01 542.272 1319 585 1300.03 622.75C1292.65 637.446 1283.3 653.026 1269.42 662.88C1255.53 672.734 1241.17 672.06 1225.26 669.092C1178.07 660.324 1130.98 639.922 1086.22 620.585C1030.19 596.378 975.263 569.325 922.81 538.549C886.604 517.303 850.278 494.351 819.987 465.545C811.177 457.161 802.794 448.184 796.017 438.161C791.363 431.289 788.868 422.419 782.126 417.253C761.03 401.126 718.677 405.942 693.936 406.88C644.561 408.748 595.963 417.631 546.65 419.789C519.737 420.969 477.587 423.937 457.823 401.889C439.236 381.162 456.07 348.518 467.179 328.547C489.011 289.279 518.342 254.295 544.631 217.793C555.439 202.772 567.283 187.057 574.285 169.905C580.509 154.622 569.764 143.561 559.167 132.466Z" stroke="#2B2B2B" stroke-width="1.66931"/>
<path fill-rule="evenodd" clip-rule="evenodd" d="M569.337 133.173C536.423 95.0932 496.744 61.2902 463.592 22.5909C444.187 -0.0724341 410.768 -38.1724 425.776 -70.1233C442.24 -105.233 499.629 -106.189 532.802 -109.018C572.285 -112.385 618.652 -116.985 652.441 -138.908C663.128 -145.838 672.232 -155.011 676.091 -167.094C680.222 -180.025 675.705 -191.34 675.117 -204.285C673.885 -231.44 690.734 -253.241 713.031 -268.213C744.545 -289.381 783.95 -299.39 821.171 -306.367C863.34 -314.237 906.21 -318.117 949.165 -317.951C990.216 -317.817 1030.83 -318.692 1071.93 -319.702C1125.67 -321.049 1180.17 -318.874 1232.3 -305.141C1283.65 -291.604 1330.34 -266.233 1367.01 -228.915C1402.79 -192.498 1426.93 -147.987 1448.07 -102.647C1460.07 -76.9122 1480.33 -38.4553 1508.95 -25.4567C1521.67 -19.6714 1534.16 -20.0687 1520.63 -5.02269C1503.59 13.9229 1480.63 29.1238 1460.89 45.3282C1432.43 68.7122 1403.25 92.5541 1379.35 120.356C1364.09 138.11 1357.29 155.338 1358.34 178.324C1359.15 195.835 1362.84 213.165 1360.98 230.743C1356.61 272.002 1322.84 300.295 1292.98 326.643C1273.77 343.588 1256.22 356.512 1246.34 380.617C1234.64 409.106 1229.73 440.101 1221.92 469.681C1213.33 502.164 1203.42 535.953 1184.68 564.564C1167.99 590.035 1147.71 601.458 1117.34 594.595C1069.98 583.9 1023.3 557.552 981.253 533.178C938.457 508.38 896.397 480.497 860.934 446.411C841.788 428.005 828.721 406.392 811.717 386.618C790.33 361.793 741.947 371.195 713.192 373.296C665.46 376.785 515.267 402.89 529.126 318.338C534.91 283.047 557.691 250.477 574.351 219.334C581.256 206.409 591.249 190.899 592.811 176.088C594.513 159.958 579.232 144.636 569.337 133.173Z" stroke="#2B2B2B" stroke-width="1.66931"/>
<path fill-rule="evenodd" clip-rule="evenodd" d="M586.714 136.407C561.561 101.899 531.46 69.2983 509.878 32.0276C495.877 7.8902 482.128 -24.3604 500.189 -49.8993C520.574 -78.72 565.523 -85.4383 598.551 -89.1108C632.58 -92.8911 673.203 -96.0716 701.015 -117.925C709.864 -124.886 717.158 -134.272 718.516 -145.512C719.825 -156.294 716.129 -167.075 717.354 -178.052C720.098 -202.702 735.632 -223.012 755.66 -237.742C814.904 -281.32 903.08 -291.01 974.56 -292.149C1010.34 -292.715 1047.16 -289.743 1083.17 -287.614C1129.9 -284.851 1176.7 -278.921 1221.26 -264.629C1316.01 -234.252 1379.52 -166.88 1423.87 -83.0461C1437.83 -56.6581 1448.51 -28.107 1470.39 -6.90089C1481.66 4.04919 1479.2 11.9131 1467.67 21.8995C1449.65 37.5059 1427.66 49.4331 1407.65 62.4587C1379.19 80.9829 1350.13 99.7833 1324.96 121.973C1307.62 137.27 1295.3 152.007 1291.56 174.945C1288.9 191.299 1289.52 207.963 1287.92 224.419C1284.86 255.679 1274.41 286.703 1255.91 312.633C1241.21 333.185 1223.71 351.864 1205.62 369.674C1182.11 392.862 1162.22 416.419 1144.36 443.94C1120.69 480.368 1087.42 547.564 1031.66 529.782C970.15 510.159 912.502 460.301 873.041 411.992C859.79 395.773 848.911 375.881 831.039 363.92C804.284 346.042 777.137 346.669 745.313 346.743C697.669 346.844 593.994 356.797 592.874 288.118C592.433 260.908 604.669 235.18 610.529 209.008C617.137 179.695 603.892 159.925 586.714 136.407Z" stroke="#2B2B2B" stroke-width="1.66931"/>
<path fill-rule="evenodd" clip-rule="evenodd" d="M605.447 139.483C580.568 94.5082 524.78 20.6047 567.211 -29.4073C589.625 -55.8374 629.269 -65.7698 662.525 -71.6888C689.288 -76.4766 721.563 -78.2745 741.784 -98.5702C756.647 -113.492 750.049 -135.209 755.744 -153.888C762.811 -177.046 779.033 -195.995 798.967 -210.237C854.671 -250.04 932.124 -262.255 999.133 -264.855C1068.73 -267.548 1145.41 -254.949 1210.9 -230.714C1292.55 -200.486 1353.73 -143.249 1396.51 -70.7663C1404.4 -57.3862 1411.58 -43.656 1419.15 -30.1143C1424.25 -21.0304 1431.8 -12.2428 1435.81 -2.68753C1442.49 13.2447 1434.62 26.2678 1422 36.6514C1403.84 51.6004 1381.54 62.2398 1360.84 73.4583C1332.54 88.8114 1303.61 103.888 1277.28 121.901C1259.58 134.022 1241.07 147.079 1234.73 168.109C1230.41 182.452 1229.52 197.643 1229.67 212.498C1230.01 244.349 1228.27 270.106 1212.82 299.276C1187.39 347.167 1148.29 390.23 1106.99 426.061C1074.58 454.181 1023.28 497.863 976.054 479.062C933.679 462.228 908.891 421.933 880.972 389.355C867.398 373.517 852.15 359.052 834.233 347.787C811.644 333.585 790.38 327.626 763.616 325.303C718.572 321.39 650.653 320.373 636.728 268.388C631.587 249.204 634.522 229.332 631.825 209.899C628.302 184.203 617.999 162.169 605.447 139.483Z" stroke="#2B2B2B" stroke-width="1.66931"/>
<path fill-rule="evenodd" clip-rule="evenodd" d="M631.316 141.149C613.6 91.9373 590.326 29.9174 633.115 -13.8202C653.841 -35.008 682.995 -46.8525 711.21 -55.7039C731.418 -62.0474 763.505 -63.9147 775.894 -83.4173C784.994 -97.7695 786.254 -117.569 794.485 -132.946C805.797 -154.086 822.932 -171.499 843.035 -185.13C895.406 -220.65 963.617 -234.375 1025.82 -238.305C1160.99 -246.833 1298.52 -178.914 1370.84 -67.1708C1392.41 -33.862 1420.25 1.59041 1385.4 35.6205C1347.35 72.7448 1290.02 90.1373 1244.61 116.516C1227.26 126.588 1205.15 138.695 1195.47 156.93C1189.64 167.891 1189.24 181.644 1188.98 193.711C1188.28 224.444 1185.63 252.083 1172.78 280.761C1152.94 325.078 1121.31 365.964 1085.47 399.455C1054.21 428.658 1009.63 462.978 964.226 441.925C929.417 425.746 907.34 391.406 880.294 366.092C850.195 337.9 812.971 318.903 772.093 309.62C732.328 300.614 688.713 294.54 667.757 256.277C660.568 243.151 653.057 226.156 650.362 211.629C646.012 187.676 639.642 164.105 631.316 141.149Z" stroke="#2B2B2B" stroke-width="1.66931"/>
<path fill-rule="evenodd" clip-rule="evenodd" d="M660.164 141.496C651.968 91.8027 651.057 39.9867 689.137 0.821267C706.909 -17.4505 729.374 -30.4315 752.092 -42.1926C768.806 -50.8466 786.067 -58.1459 798.55 -72.3333C810.115 -85.4693 818.907 -100.722 830.073 -114.201C844.802 -132.065 862.426 -147.529 882.268 -159.999C932.004 -191.198 992.507 -205.79 1050.39 -210.851C1078.41 -213.311 1108.81 -214.592 1136.64 -207.886C1163.52 -201.415 1190.09 -191.184 1214.81 -179.255C1267.34 -153.919 1312.88 -116.816 1345.89 -69.907C1368.52 -37.7308 1380.76 -6.44432 1351.45 26.1969C1318.41 62.9898 1266.6 83.2903 1223.89 107.17C1194.6 123.548 1161.78 139.602 1156.31 174.407C1151.95 202.101 1148.41 228.386 1137.14 254.564C1120.37 293.176 1095.7 328.154 1064.61 357.421C1036.18 384.084 1000.21 406.71 959.534 392.468C927.31 381.166 902.309 355.844 874.156 337.741C842.78 317.521 808.308 306.373 772.007 297.409C739.385 289.321 708.667 276.893 687.582 250.506C683.267 245.115 678.734 239.244 675.407 233.212C671.162 225.515 671.491 217.886 670.658 209.259C668.486 186.491 663.87 163.987 660.164 141.496Z" stroke="#2B2B2B" stroke-width="1.66931"/>
<path fill-rule="evenodd" clip-rule="evenodd" d="M691.968 137.434C692.668 90.2332 704.467 45.6244 736.78 8.83976C750.595 -6.89617 767.091 -19.8575 782.292 -34.2771C794.531 -45.9018 806.098 -56.703 820.172 -66.2823C853.557 -88.9647 880.689 -118.317 916.167 -138.515C963.527 -165.518 1017.78 -180.444 1071.61 -186.411C1097.89 -189.328 1125.05 -190.347 1151.64 -187.053C1174.48 -184.224 1196.35 -174.294 1216.64 -164.134C1256.41 -144.233 1295.03 -115.947 1320.85 -80.1617C1377.78 -1.26607 1265.54 56.0948 1207.93 89.6864C1181.43 105.139 1140.95 123.035 1130.09 153.643C1122.34 175.508 1117.61 197.745 1107.62 218.936C1080.78 275.844 1026.3 342.778 953.697 333.867C922.63 330.059 894.314 314.593 865.313 304.211C835.45 293.518 804.628 287.557 773.589 281.015C744.58 274.906 721.46 266.211 702.723 242.901C693.768 231.769 694.559 218.443 693.761 204.786C692.458 182.354 691.653 159.793 691.968 137.434Z" stroke="#2B2B2B" stroke-width="1.66931"/>
<path fill-rule="evenodd" clip-rule="evenodd" d="M720.93 131.388C732.594 60.1425 775.914 -17.6376 839.61 -59.0135C914.536 -107.685 995.707 -148.67 1085.23 -160.452C1126.73 -165.916 1172.2 -168.604 1211.36 -150.738C1241.16 -137.151 1275.78 -116.84 1292.19 -88.277C1332.32 -18.4123 1243.06 37.2046 1192.2 69.5265C1164.82 86.927 1129.97 103.883 1109.33 129.293C1097.36 144.026 1091.25 163.515 1081.58 179.696C1052.29 228.731 1004.07 268.282 944.004 275.355C916.232 278.622 888.257 274.58 860.695 271.367C832.481 268.079 803.917 266.294 775.879 261.707C753.497 258.042 727.12 251.838 718.877 228.792C708.481 199.751 716.171 160.483 720.93 131.388Z" stroke="#2B2B2B" stroke-width="1.66931"/>
<path fill-rule="evenodd" clip-rule="evenodd" d="M749.329 119.943C766.34 52.9602 802.362 -12.3777 862.919 -52.3653C895.032 -73.5693 932.31 -88.2064 968.101 -102.668C1008.67 -119.058 1051.06 -131.781 1094.35 -138.091C1148.25 -145.953 1235.56 -153.039 1263.72 -93.944C1291.67 -35.2875 1221.04 16.6269 1179.27 46.2113C1152.49 65.1634 1123.83 82.5581 1098.24 103.277C1084.36 114.509 1073.68 127.488 1061.94 140.662C1029.49 177.164 983.224 206.06 936.072 221.486C890.372 236.44 833.837 243.061 785.597 238.119C764.782 235.995 749.904 228.828 743.61 208.454C734.886 180.13 742.297 147.613 749.329 119.943Z" stroke="#2B2B2B" stroke-width="1.66931"/>
<path fill-rule="evenodd" clip-rule="evenodd" d="M777.547 101.902C794.446 42.9262 830.896 -10.9404 884.064 -46.3367C943.662 -86.0166 1020.4 -108.066 1090.94 -119.278C1128.43 -125.233 1209.68 -141.381 1228.79 -95.1679C1247.9 -48.9552 1192.66 -3.41399 1160.86 21.6562C1122.27 52.0372 1080.66 81.3708 1039.1 108.63C1002.99 132.33 964.466 156.561 925.356 174.864C903.299 185.246 880.321 193.724 856.696 200.196C839.202 204.949 816.957 212.039 798.616 208.501C752.355 199.565 769.464 130.101 777.547 101.902Z" stroke="#2B2B2B" stroke-width="1.66931"/>
<path fill-rule="evenodd" clip-rule="evenodd" d="M812.38 84.2419C849.459 -27.2887 966.935 -82.1415 1080.05 -101.261C1106.33 -105.699 1180.01 -121.7 1194.7 -87.6301C1208.94 -54.5972 1163.66 -15.4225 1142.46 3.1379C1076.78 60.6508 995.626 103.294 918.726 145.54C894.723 158.726 851.432 187.341 821.657 174.141C789.328 159.783 804.699 107.368 812.38 84.2419Z" stroke="#2B2B2B" stroke-width="1.66931"/>
<path fill-rule="evenodd" clip-rule="evenodd" d="M850.363 62.775C882.609 -19.359 976.397 -66.4659 1062.63 -81.9953C1083.75 -85.7951 1137.39 -97.6258 1153.38 -74.7056C1168.19 -53.5034 1132.86 -22.7815 1119.64 -10.5736C1090.22 16.6113 1055.35 39.006 1020.9 60.5316C989.046 80.4469 956.849 100.861 923.333 117.704C905.68 126.57 872.571 145.488 852.511 131.798C830.913 117.071 843.204 81.0128 850.363 62.775Z" stroke="#2B2B2B" stroke-width="1.66931"/>
<path fill-rule="evenodd" clip-rule="evenodd" d="M892.214 38.7787C916.79 -14.8582 982.614 -49.6881 1040.68 -61.2621C1056.3 -64.3696 1090.07 -72.4316 1103.25 -58.1074C1115.38 -44.9155 1095.83 -25.5761 1087.15 -16.6445C1048.68 22.9445 992.353 58.3069 940.742 80.0259C927.766 85.4859 904.439 96.2039 891.09 85.1826C877.397 73.8648 886.568 51.0942 892.214 38.7787Z" stroke="#2B2B2B" stroke-width="1.66931"/>
<path fill-rule="evenodd" clip-rule="evenodd" d="M936.612 16.2478C950.461 -10.3861 986.656 -30.4806 1016.64 -36.8771C1037.74 -41.375 1063.1 -37.4895 1044.71 -14.3057C1026.45 8.70131 992.549 29.7145 963.819 39.0302C941.899 46.1344 924.72 39.1255 936.612 16.2478Z" stroke="#2B2B2B" stroke-width="1.66931"/>
<path fill-rule="evenodd" clip-rule="evenodd" d="M-186.431 200.718C-187.319 148.099 -216.378 93.4125 -202.027 39.7969C-190.242 -4.23753 -130.913 -7.91387 -95.3216 -27.864C-67.0384 -43.7137 -50.9874 -71.7907 -35.6919 -98.7298C-21.9489 -122.915 -9.60474 -147.827 4.87255 -171.616C14.2443 -186.994 30.3372 -217.192 50.6614 -217.737C70.1183 -218.262 87.9597 -194.73 99.2617 -180.82C113.998 -162.687 127.062 -143.357 141.372 -124.935C165.487 -93.8617 194.42 -70.8615 227.55 -49.0934C265.252 -24.3246 303.576 -0.40195 342.522 22.6746C371.197 39.7161 400.068 56.6296 427.631 75.3544C444.92 87.1036 483.078 109.148 483.253 130.808C483.337 141.143 473.161 152.59 466.3 160.851C454.69 174.836 441.458 187.622 428.183 200.132C403.46 223.435 377.687 245.681 352.195 268.197C319.107 297.419 287.502 326.162 258.414 359.336C228.341 393.675 199.61 429.145 170.291 464.13C150.436 487.83 130.601 514.446 101.961 528.99C66.0898 547.169 36.6457 528 0.368501 527.778C-30.8381 527.583 -28.5371 457.989 -32.5027 438.638C-36.4822 419.052 -45.2525 400.819 -48.6515 381.185C-52.8898 356.677 -52.9457 331.602 -53.9878 306.831C-55.2537 276.532 -55.7573 247.688 -89.4048 236.134C-108.554 229.569 -129.27 228.189 -149.09 224.257C-161.931 221.705 -186.151 217.342 -186.431 200.718Z" stroke="#2B2B2B" stroke-width="1.66931"/>
<path fill-rule="evenodd" clip-rule="evenodd" d="M-171.087 191.358C-174.358 147.25 -193.684 90.795 -175.409 45.2644C-159.796 6.35564 -110.968 1.31168 -78.0889 -19.1272C-50.9466 -35.9854 -38.8639 -63.5722 -25.2963 -90.6735C-14.4113 -112.414 -3.85561 -134.363 8.50027 -155.409C17.6061 -170.919 31.5099 -197.103 50.443 -200.312C67.4639 -203.199 85.7175 -180.083 95.2716 -168.322C109.21 -151.154 121.132 -132.509 133.446 -114.255C155.083 -82.1904 177.238 -53.3561 208.905 -29.8018C240.712 -6.14641 275.51 11.5413 310.68 29.9504C338.193 44.3541 365.567 59.1758 391.707 75.8047C411.18 88.1854 439.177 104.032 448.086 126.11C455.14 143.575 419.368 172.557 408.819 182.787C387.106 203.819 364.096 223.564 341.044 243.186C312.942 267.098 283.944 288.009 259.127 315.286C214.74 364.053 177.637 424.783 120.523 461.028C86.0747 482.89 47.7393 488.48 9.42486 485.21C-5.74681 483.915 -9.38912 463.301 -11.3013 451.277C-14.4814 431.304 -14.8806 410.986 -17.3252 390.932C-19.6156 372.159 -24.7009 354.323 -28.7985 335.913C-32.9451 317.261 -34.1079 298.151 -37.1618 279.371C-39.053 267.712 -40.9232 254.144 -49.1955 244.771C-57.755 235.068 -71.876 231.001 -84.2178 227.913C-107.396 222.168 -168.776 222.485 -171.087 191.358Z" stroke="#2B2B2B" stroke-width="1.66931"/>
<path fill-rule="evenodd" clip-rule="evenodd" d="M-151.342 172.893C-156.843 132.405 -164.545 81.9776 -142.134 44.6753C-123.815 14.1749 -84.7456 7.5953 -56.8399 -12.2781C-33.6295 -28.8045 -24.8626 -55.0892 -13.3415 -79.5151C-3.88775 -99.5502 5.61504 -119.673 17.073 -138.738C25.7629 -153.197 36.9616 -172.801 54.2152 -177.845C68.967 -182.155 85.6319 -162.847 93.8102 -153.237C107.735 -136.859 119.088 -118.508 130.364 -100.399C148.809 -70.7671 165.782 -39.115 192.034 -15.0123C217.543 8.37649 247.845 22.1822 278.715 37.7051C302.36 49.5982 325.858 61.9492 348.136 76.1321C365.242 87.015 386.441 99.9115 395.356 118.021C403.064 133.638 383.274 152.124 373.386 163.141C357.057 181.325 338.935 198.006 321.064 214.754C301.778 232.823 280.418 249.491 261.756 268.004C222.511 306.963 191.158 350.097 142.789 379.944C111.463 399.279 69.3104 416.843 32.2803 413.684C5.65008 411.408 7.40208 354.69 4.84418 336.568C0.639401 306.936 -7.48284 275.803 -20.3845 248.508C-31.4641 225.119 -57.793 217.906 -82.0125 212.66C-97.1847 209.367 -113.086 207.589 -127.76 202.498C-144.748 196.598 -149.037 189.864 -151.342 172.893Z" stroke="#2B2B2B" stroke-width="1.66931"/>
<path fill-rule="evenodd" clip-rule="evenodd" d="M-132.924 153.916C-136.2 119.685 -135.463 79.2075 -114.246 49.5971C-95.6521 23.6609 -62.5465 16.8324 -39.0009 -3.59904C-20.6244 -19.539 -13.4071 -45.5291 -3.52454 -66.6089C8.5534 -92.383 25.478 -139.987 55.9464 -149.686C84.2895 -158.702 113.93 -101.103 124.192 -83.9267C140.436 -56.7411 154.022 -26.9281 173.724 -1.82269C190.69 19.7908 213.422 31.7389 237.55 44.5787C268.313 60.9779 315.019 80.4232 331.466 112.384C343.727 136.199 303.86 171.605 290.246 188.105C276.008 205.342 265.283 225.774 250.589 242.402C227.401 268.643 189.828 289.77 158.805 305.892C128.645 321.575 89.4798 338.933 55.266 337.9C32.7794 337.225 28.501 303.805 23.7034 287.48C16.8298 264.273 7.6907 243.476 -11.9412 227.692C-31.9238 211.624 -55.4765 204.052 -80.2356 197.426C-92.9448 194.049 -107.443 191.415 -118.812 184.593C-131.374 177.17 -131.662 167.073 -132.924 153.916Z" stroke="#2B2B2B" stroke-width="1.66931"/>
<path fill-rule="evenodd" clip-rule="evenodd" d="M-110.481 134.185C-110.299 104.612 -103.273 73.0775 -82.4394 50.2664C-65.0873 31.2661 -37.9267 24.9148 -21.3157 5.49104C-8.15828 -9.88662 -1.46074 -31.4745 7.34812 -49.3323C18.1215 -71.2159 33.3552 -109.445 60.1454 -117.04C86.2923 -124.433 109.419 -82.3257 119.444 -65.6643C134.126 -41.2334 146.011 -15.3374 160.825 9.02626C172.43 28.1408 186.623 40.4604 205.52 52.78C227.703 67.2504 258.653 83.28 270.503 107.22C279.046 124.554 258.366 152.251 250.857 167.521C245.824 177.777 241.217 188.195 238.686 199.311C236.714 207.968 236.518 215.98 230.807 223.413C216.426 242.111 184.896 244.551 163.503 250.714C135.091 258.893 104.945 268.188 75.2113 269.963C56.9364 271.072 47.6103 254.867 37.1794 243.468C24.854 229.993 7.40405 220.301 -7.83669 210.132C-27.9503 196.69 -49.8396 188.329 -72.484 179.767C-82.6981 175.902 -94.6949 172.112 -102.609 164.429C-110.872 156.465 -110.544 144.858 -110.481 134.185Z" stroke="#2B2B2B" stroke-width="1.66931"/>
<path fill-rule="evenodd" clip-rule="evenodd" d="M-86.9113 116.629C-83.3002 91.7924 -72.047 68.0542 -53.0396 50.4966C-38.4691 37.0166 -19.1189 29.4273 -7.42473 13.2312C3.47161 -1.86641 11.0648 -19.0332 20.0646 -35.1754C29.5892 -52.2411 43.7398 -80.7647 65.7074 -85.4085C89.3827 -90.4096 107.62 -61.6366 117.719 -45.6898C130.477 -25.5372 140.169 -3.85472 151.576 16.992C160.17 32.5301 171.132 46.7407 184.098 59.1507C197.695 72.233 216.136 84.7626 223.015 102.752C229.097 118.685 217.717 137.961 215.709 154.117C213.56 171.378 217.325 189.509 205.414 204.33C180.85 234.896 119.202 229.227 83.959 229.881C49.1845 230.555 21.2263 211.852 -6.91385 194.058C-25.5013 182.31 -44.8586 172.362 -63.9149 161.416C-83.3422 150.248 -90.0886 138.487 -86.9113 116.629Z" stroke="#2B2B2B" stroke-width="1.66931"/>
<path fill-rule="evenodd" clip-rule="evenodd" d="M-65.014 102.414C-54.3352 66.4321 -20.9821 47.3081 2.86151 20.1163C22.3706 -2.14446 36.9988 -48.2444 69.8547 -54.3425C107.157 -61.2635 129.488 -0.181446 142.457 23.3879C156.847 49.5274 182.476 70.7898 193.134 98.4606C198.736 112.984 193.926 126.536 190.942 141.053C187.672 156.993 185.214 173.29 173.926 186.121C151.707 211.37 108.313 211.194 77.0603 211.889C44.7086 212.611 16.0893 195.308 -9.68703 178.039C-37.0249 159.752 -75.952 139.312 -65.014 102.414Z" stroke="#2B2B2B" stroke-width="1.66931"/>
<path fill-rule="evenodd" clip-rule="evenodd" d="M-47.1293 92.6567C-35.0962 67.0211 -9.80979 46.1799 10.7085 26.5056C27.8342 10.1036 46.2576 -22.915 72.3693 -25.2687C103.059 -28.0448 121.658 7.21344 133.734 28.8324C145.619 50.0759 162.744 72.5062 169.325 95.8218C176.188 120.11 157.913 152.82 140.484 170.006C121.045 189.171 89.241 196.252 61.9514 195.488C33.3781 194.71 7.16068 178.871 -14.4791 162.442C-37.6142 144.88 -61.1232 122.416 -47.1293 92.6567Z" stroke="#2B2B2B" stroke-width="1.66931"/>
<path fill-rule="evenodd" clip-rule="evenodd" d="M-30.5312 87.8305C-19.0371 66.5085 0.886967 48.4714 19.2578 32.3825C33.4348 19.9615 54.3543 -1.15903 74.8079 -1.67629C97.3089 -2.2473 116.379 15.4807 125.324 33.6522C134.142 51.575 143.434 74.0458 144.754 93.7085C147.62 136.527 89.2602 184.492 45.4372 180.589C3.88757 176.887 -53.4488 130.313 -30.5312 87.8305Z" stroke="#2B2B2B" stroke-width="1.66931"/>
<path fill-rule="evenodd" clip-rule="evenodd" d="M-15.1818 85.4796C0.674951 57.6988 39.1913 18.0933 74.8496 17.1527C115.779 16.0778 126.054 60.151 120.719 92.0906C115.299 124.689 68.1103 171.873 30.4831 165.497C-6.24075 159.275 -33.9742 118.427 -15.1818 85.4796Z" stroke="#2B2B2B" stroke-width="1.66931"/>
<path fill-rule="evenodd" clip-rule="evenodd" d="M1.02219 80.9874C14.4476 57.7269 43.0963 28.6731 72.9763 27.7937C108.579 26.7532 107.908 63.9633 99.8341 87.1231C91.4389 111.169 54.4648 152.239 23.2906 145.754C-7.02323 139.424 -11.8435 103.281 1.02219 80.9874Z" stroke="#2B2B2B" stroke-width="1.66931"/>
<path fill-rule="evenodd" clip-rule="evenodd" d="M15.1392 78.3104C24.0008 61.713 46.1796 40.7357 67.2638 40.0645C93.0349 39.2577 88.0253 68.771 81.3667 83.0158C73.4523 99.9657 46.9233 129.418 24.6604 124.645C2.74123 119.946 7.82809 91.9857 15.1392 78.3104Z" stroke="#2B2B2B" stroke-width="1.66931"/>
</g>
</g>
<defs>
<filter id="filter0_d_1_14225" x="-20" y="0" width="1768" height="529" filterUnits="userSpaceOnUse" color-interpolation-filters="sRGB">
<feFlood flood-opacity="0" result="BackgroundImageFix"/>
<feColorMatrix in="SourceAlpha" type="matrix" values="0 0 0 0 0 0 0 0 0 0 0 0 0 0 0 0 0 0 127 0" result="hardAlpha"/>
<feOffset dy="5"/>
<feGaussianBlur stdDeviation="10"/>
<feComposite in2="hardAlpha" operator="out"/>
<feColorMatrix type="matrix" values="0 0 0 0 0.129167 0 0 0 0 0 0 0 0 0 0.0137874 0 0 0 0.05 0"/>
<feBlend mode="normal" in2="BackgroundImageFix" result="effect1_dropShadow_1_14225"/>
<feBlend mode="normal" in="SourceGraphic" in2="effect1_dropShadow_1_14225" result="shape"/>
</filter>
<clipPath id="clip0_1_14225">
<rect width="1728" height="489" fill="white" transform="translate(0 15)"/>
</clipPath>
</defs>
</svg>
