<svg width="29" height="29" viewBox="0 0 29 29" fill="none" xmlns="http://www.w3.org/2000/svg">
<rect x="0.0581055" width="28.058" height="28.058" rx="14.029" fill="#1A1A1A"/>
<g clip-path="url(#clip0_1_14360)">
<path d="M20.0656 7.01465H8.10788C7.83322 7.01465 7.5698 7.12376 7.37559 7.31797C7.18137 7.51219 7.07227 7.7756 7.07227 8.05026V20.008C7.07227 20.2827 7.18137 20.5461 7.37559 20.7403C7.5698 20.9345 7.83322 21.0436 8.10788 21.0436H20.0656C20.3403 21.0436 20.6037 20.9345 20.7979 20.7403C20.9921 20.5461 21.1013 20.2827 21.1013 20.008V8.05026C21.1013 7.7756 20.9921 7.51219 20.7979 7.31797C20.6037 7.12376 20.3403 7.01465 20.0656 7.01465ZM11.2537 18.9656H9.14446V12.2658H11.2537V18.9656ZM10.1976 11.3373C9.95836 11.336 9.72486 11.2638 9.5266 11.1299C9.32833 10.9959 9.17418 10.8063 9.0836 10.5848C8.99302 10.3634 8.97006 10.1201 9.01764 9.8856C9.06521 9.65111 9.18117 9.43598 9.3509 9.26734C9.52062 9.0987 9.7365 8.98412 9.97128 8.93806C10.2061 8.89199 10.4492 8.91651 10.6701 9.00851C10.891 9.10051 11.0796 9.25588 11.2123 9.455C11.3449 9.65412 11.4156 9.88807 11.4154 10.1273C11.4177 10.2875 11.3876 10.4465 11.3271 10.5948C11.2666 10.7432 11.1769 10.8778 11.0633 10.9907C10.9496 11.1036 10.8144 11.1925 10.6657 11.2521C10.517 11.3116 10.3578 11.3406 10.1976 11.3373ZM19.0281 18.9714H16.9198V15.3112C16.9198 14.2318 16.461 13.8986 15.8686 13.8986C15.2432 13.8986 14.6294 14.3701 14.6294 15.3385V18.9714H12.5202V12.2706H14.5485V13.1991H14.5758C14.7794 12.787 15.4926 12.0826 16.5808 12.0826C17.7577 12.0826 19.0291 12.7811 19.0291 14.827L19.0281 18.9714Z" fill="white"/>
</g>
<defs>
<clipPath id="clip0_1_14360">
<rect width="14.029" height="14.029" fill="white" transform="translate(7.07227 7.01465)"/>
</clipPath>
</defs>
</svg>
