<svg width="29" height="29" viewBox="0 0 29 29" fill="none" xmlns="http://www.w3.org/2000/svg">
<rect width="28.058" height="28.058" rx="14.029" fill="#1A1A1A"/>
<g clip-path="url(#clip0_1_14358)">
<path d="M19.3232 11.212C19.3286 11.3355 19.3286 11.4533 19.3286 11.5768C19.334 15.3197 16.5841 19.6407 11.5551 19.6407C10.0719 19.6407 8.61571 19.1974 7.36523 18.3668C7.58177 18.3949 7.7983 18.4061 8.01483 18.4061C9.24365 18.4061 10.44 17.9796 11.409 17.1884C10.2397 17.1659 9.21117 16.3747 8.85389 15.2187C9.2653 15.3029 9.68754 15.2861 10.0881 15.1682C8.816 14.9101 7.90115 13.7485 7.89574 12.3961C7.89574 12.3849 7.89574 12.3736 7.89574 12.3624C8.27467 12.5813 8.70232 12.7047 9.13538 12.7159C7.93904 11.8854 7.56553 10.23 8.29091 8.93371C9.68213 10.707 11.7284 11.7788 13.9261 11.8966C13.7042 10.9146 14.0073 9.88208 14.7165 9.18624C15.8154 8.11442 17.5476 8.17053 18.587 9.30969C19.1987 9.18624 19.7888 8.95055 20.3247 8.61946C20.119 9.27602 19.6913 9.83157 19.1229 10.1851C19.6642 10.1178 20.1947 9.96625 20.6928 9.74179C20.3247 10.3142 19.8591 10.808 19.3232 11.212Z" fill="white"/>
</g>
<defs>
<clipPath id="clip0_1_14358">
<rect width="14.029" height="14.029" fill="white" transform="translate(7.01465 7.01465)"/>
</clipPath>
</defs>
</svg>
